<?xml version="1.0" encoding="UTF-8"?>
<svg version="1.1" xmlns="http://www.w3.org/2000/svg" width="24" height="24">
<path d="M0 0 C2.31 0 4.62 0 7 0 C7 2.64 7 5.28 7 8 C8.98 8 10.96 8 13 8 C13 12 13 12 12 15 C12 16.32 12 17.64 12 19 C9.69 18.67 7.38 18.34 5 18 C4.34 19.98 3.68 21.96 3 24 C-0.63 24 -4.26 24 -8 24 C-8 18.39 -8 12.78 -8 7 C-4.535 6.505 -4.535 6.505 -1 6 C-0.67 4.02 -0.34 2.04 0 0 Z M5 10 C6 12 6 12 6 12 Z M5 14 C9 15 9 15 9 15 Z " fill="#4AAF47" transform="translate(9,0)"/>
<path d="M0 0 C2.31 0 4.62 0 7 0 C7 1.98 7 3.96 7 6 C4.69 6 2.38 6 0 6 C0 4.02 0 2.04 0 0 Z " fill="#4AAE47" transform="translate(1,0)"/>
</svg>
