<?xml version="1.0" encoding="UTF-8"?>
<svg version="1.1" xmlns="http://www.w3.org/2000/svg" width="64" height="64">
<path d="M0 0 C5.81774472 -0.09777722 10.40169927 0.40048551 16 2 C15.43617776 8.99365488 14.37639601 15.76100843 12.9375 22.625 C12.75123047 23.53378906 12.56496094 24.44257813 12.37304688 25.37890625 C11.91982704 27.5869003 11.46210307 29.79385124 11 32 C9.24967156 31.85816304 7.49974466 31.71136571 5.75 31.5625 C4.77546875 31.48128906 3.8009375 31.40007813 2.796875 31.31640625 C0.42828679 31.04845144 -1.70376168 30.60416008 -4 30 C-4.22875012 23.03026979 -3.4042249 16.75463237 -2 9.9375 C-1.80921875 8.97650391 -1.6184375 8.01550781 -1.421875 7.02539062 C-0.95551945 4.681954 -0.48145534 2.34037235 0 0 Z " fill="#4AAE46" transform="translate(26,0)"/>
<path d="M0 0 C5.28 0 10.56 0 16 0 C16 8.91 16 17.82 16 27 C10.72 27 5.44 27 0 27 C0 18.09 0 9.18 0 0 Z " fill="#4AAE47" transform="translate(3,19)"/>
<path d="M0 0 C11 1 11 1 14 2 C13.35299955 11.86675685 11.12620288 21.3678065 9 31 C6.03 31 3.06 31 0 31 C0 20.77 0 10.54 0 0 Z " fill="#4AAF46" transform="translate(22,33)"/>
<path d="M0 0 C1.39456867 0.00574201 2.78910972 0.01875397 4.18359375 0.03515625 C6.63796875 0.05578125 9.09234375 0.07640625 11.62109375 0.09765625 C11.62109375 5.37765625 11.62109375 10.65765625 11.62109375 16.09765625 C6.34109375 16.09765625 1.06109375 16.09765625 -4.37890625 16.09765625 C-4.39953125 13.64328125 -4.42015625 11.18890625 -4.44140625 8.66015625 C-4.45051025 7.88615479 -4.45961426 7.11215332 -4.46899414 6.31469727 C-4.47615538 4.57543908 -4.42915327 2.83620321 -4.37890625 1.09765625 C-3.37890625 0.09765625 -3.37890625 0.09765625 0 0 Z " fill="#4AAE47" transform="translate(7.37890625,-0.09765625)"/>
<path d="M0 0 C0.99 0.66 1.98 1.32 3 2 C1.43352827 7.48265106 -2.09967032 10.23431812 -6.8671875 13.13671875 C-9.46283537 14.18733813 -11.45997045 14.19842183 -14.25 14.125 C-15.14203125 14.10695313 -16.0340625 14.08890625 -16.953125 14.0703125 C-17.96632812 14.03550781 -17.96632812 14.03550781 -19 14 C-18.85851011 12.3954444 -18.71164314 10.79136233 -18.5625 9.1875 C-18.48128906 8.29417969 -18.40007813 7.40085937 -18.31640625 6.48046875 C-18 4 -18 4 -17 1 C-11.63169653 -1.82542288 -5.78649672 -1.1264138 0 0 Z " fill="#4AAF46" transform="translate(58,23)"/>
<path d="M0 0 C5.28 0 10.56 0 16 0 C16 4.95 16 9.9 16 15 C13.545625 15.020625 11.09125 15.04125 8.5625 15.0625 C7.78849854 15.071604 7.01449707 15.08070801 6.21704102 15.09008789 C4.47778283 15.09724913 2.73854696 15.05024702 1 15 C0 14 0 14 -0.09765625 10.83984375 C-0.04882812 5.41992188 -0.04882812 5.41992188 0 0 Z " fill="#4AAE47" transform="translate(3,49)"/>
<path d="M0 0 C2.41685712 4.22949995 3.34833144 7.12335991 3 12 C-3.98319361 12.646592 -9.1924398 11.01887694 -15 7 C-16 4 -16 4 -15 1 C-13.43784452 0.83013455 -11.8752548 0.66426036 -10.3125 0.5 C-9.44238281 0.4071875 -8.57226562 0.314375 -7.67578125 0.21875 C-5.10276661 0.00840136 -2.58015636 -0.03719144 0 0 Z " fill="#4BAF47" transform="translate(53,39)"/>
</svg>
